<svg version="1.2" baseProfile="tiny-ps" xmlns="http://www.w3.org/2000/svg" viewBox="0 0 1578 1579" width="1578" height="1579">
	<title>Meituan_English_Logo-svg</title>
	<style>
		tspan { white-space:pre }
		.shp0 { fill: #ffd100 } 
		.shp1 { fill: #000000 } 
	</style>
	<g id="#ffd100ff">
		<path id="Layer" fill-rule="evenodd" class="shp0" d="M420.62 0L1155.83 0C1207.09 2.5 1258.84 3.6 1309.09 15.07C1403.09 35.95 1487.78 98.63 1531.66 184.97C1581.24 276.49 1576.16 384.1 1577.74 484.93C1577.69 696.06 1577.79 907.18 1577.74 1118.31C1577.07 1176.09 1576.59 1234.26 1566.71 1291.42C1552.09 1379.06 1502.36 1461.17 1428.89 1511.71C1392.92 1536.33 1352.59 1555 1309.96 1564.41C1262.82 1575.02 1214.33 1577.32 1166.23 1579L411.08 1579C355.74 1576.94 299.63 1574.44 246.11 1558.89C175.71 1537.53 111.4 1493.71 69.1 1433.05C43.59 1396.29 24.22 1354.87 14.63 1311.05C3.69 1262.1 1.68 1211.75 0 1161.79L0 418.22C1.58 369.41 3.6 320.22 13.81 272.32C24.07 223.75 45.7 177.82 75.34 138.13C115.76 83.99 174.13 44.59 237.91 23.33C296.85 4.27 359.33 2.98 420.62 0ZM273.83 494.39C275.84 510.56 277.76 526.73 279.77 542.91C245.68 542.96 211.53 542.91 177.44 542.91C177.44 561.91 177.44 580.92 177.44 599.92C261.98 599.92 346.48 599.92 431.03 599.92C431.03 615.14 430.98 630.35 430.98 645.52C351.28 645.52 271.52 645.52 191.82 645.52C191.82 664.52 191.82 683.53 191.82 702.54C271.57 702.49 351.28 702.54 430.98 702.49C431.03 716.89 431.03 731.28 430.98 745.73C351.28 745.73 271.57 745.73 191.87 745.68C191.82 764.5 191.82 783.31 191.82 802.07C271.57 802.12 351.28 802.07 430.98 802.12C431.03 819.88 431.03 837.69 430.98 855.49C346.48 855.49 261.98 855.49 177.48 855.49C177.44 874.69 177.44 893.89 177.44 913.08C256.56 913.23 335.64 912.84 414.77 913.28C361.39 980.95 273.92 1015.26 189.42 1018.48C182.62 1040.7 175.42 1062.78 168.52 1084.95C208.22 1082.02 247.79 1075.83 286.15 1064.89C355.59 1045.31 423.02 1008.74 466.42 949.61C530.87 1029.09 631.86 1070.17 731.18 1083.17C743.17 1062.49 755.01 1041.76 766.91 1021.07C676.17 1013.1 580.79 983.54 518.78 913.23C598.25 912.89 677.66 913.18 757.08 913.08C757.12 893.89 757.12 874.69 757.08 855.49C671.76 855.49 586.45 855.49 501.14 855.49C501.14 837.69 501.14 819.88 501.14 802.12C580.84 802.07 660.59 802.12 740.29 802.07C740.29 783.31 740.34 764.5 740.34 745.73C660.59 745.68 580.89 745.73 501.14 745.68C501.14 731.33 501.14 716.93 501.14 702.54C580.84 702.49 660.59 702.54 740.29 702.49C740.34 683.53 740.34 664.52 740.29 645.57C660.59 645.47 580.89 645.57 501.14 645.52C501.14 630.3 501.14 615.14 501.14 599.92C586.45 599.88 671.76 599.97 757.12 599.92C757.08 580.92 757.08 561.91 757.08 542.91C722.88 542.91 688.69 542.96 654.45 542.91C656.75 526.78 658.67 510.56 660.25 494.34C635.89 494.34 611.48 494.29 587.12 494.39C585.54 510.66 583.43 526.83 580.55 542.91C504.69 542.96 428.87 542.91 353 542.96C350.6 526.73 348.16 510.56 345.86 494.34C321.83 494.34 297.85 494.29 273.83 494.39ZM839.22 506.34C839.18 683.15 839.32 859.91 839.13 1036.72C839.18 1047.23 839.56 1058.89 846.9 1067.24C855.24 1077.66 869.48 1078.76 881.81 1078.71C1055.02 1078.57 1228.29 1078.71 1401.5 1078.66C1401.55 903.01 1401.41 727.35 1401.55 551.69C1401.31 539.6 1401.55 525.77 1392.44 516.61C1384.72 508.11 1372.78 506.05 1361.89 506.29C1187.67 506.43 1013.45 506.29 839.22 506.34Z" />
		<path id="Layer" fill-rule="evenodd" class="shp0" d="M908.18 1019.87C908.14 868.31 908.14 716.69 908.18 565.13C1049.46 565.13 1190.69 565.13 1331.97 565.13C1331.97 716.74 1332.02 868.31 1331.92 1019.87C1190.69 1019.87 1049.41 1019.87 908.18 1019.87ZM1170.69 595.7C1170.74 612.31 1170.69 628.91 1170.69 645.52C1094.59 645.57 1018.48 645.52 942.33 645.52C942.33 663.9 942.33 682.33 942.33 700.71C975.51 700.76 1008.7 700.66 1041.88 700.76C1031.24 802.03 1001.46 903.25 944.97 988.72C970.1 988.67 995.27 988.63 1020.45 988.72C1038.05 961.46 1051.43 931.71 1062.84 901.42C1086.77 836.82 1102.98 769.29 1109.89 700.76C1130.17 700.71 1150.41 700.71 1170.69 700.71C1170.45 759.89 1171.27 819.02 1170.26 878.14C1169.83 916.44 1160.29 954.22 1143.69 988.72C1168.39 988.67 1193.04 988.63 1217.74 988.72C1231.93 948.74 1238.26 906.41 1238.46 864.08C1238.5 809.61 1238.46 755.18 1238.46 700.71C1259.84 700.71 1281.18 700.71 1302.62 700.66C1302.57 682.28 1302.57 663.9 1302.57 645.52C1281.18 645.52 1259.84 645.52 1238.46 645.52C1238.46 628.91 1238.41 612.35 1238.46 595.75C1215.87 595.7 1193.28 595.7 1170.69 595.7Z" />
	</g>
	<g id="#000000ff">
		<path id="Layer" class="shp1" d="M273.83 494.39C297.85 494.29 321.83 494.34 345.86 494.34C348.16 510.56 350.6 526.73 353 542.96C428.87 542.91 504.69 542.96 580.55 542.91C583.43 526.83 585.54 510.66 587.12 494.39C611.48 494.29 635.89 494.34 660.25 494.34C658.67 510.56 656.75 526.78 654.45 542.91C688.69 542.96 722.88 542.91 757.08 542.91C757.08 561.91 757.08 580.92 757.12 599.92C671.76 599.97 586.45 599.88 501.14 599.92C501.14 615.14 501.14 630.3 501.14 645.52C580.89 645.57 660.59 645.47 740.29 645.57C740.34 664.52 740.34 683.53 740.29 702.49C660.59 702.54 580.84 702.49 501.14 702.54C501.14 716.93 501.14 731.33 501.14 745.68C580.89 745.73 660.59 745.68 740.34 745.73C740.34 764.5 740.29 783.31 740.29 802.07C660.59 802.12 580.84 802.07 501.14 802.12C501.14 819.88 501.14 837.69 501.14 855.49C586.45 855.49 671.76 855.49 757.08 855.49C757.12 874.69 757.12 893.89 757.08 913.08C677.66 913.18 598.25 912.89 518.78 913.23C580.79 983.54 676.17 1013.1 766.91 1021.07C755.01 1041.76 743.17 1062.49 731.18 1083.17C631.86 1070.17 530.87 1029.09 466.42 949.61C423.02 1008.74 355.59 1045.31 286.15 1064.89C247.79 1075.83 208.22 1082.02 168.52 1084.95C175.42 1062.78 182.62 1040.7 189.42 1018.48C273.92 1015.26 361.39 980.95 414.77 913.28C335.64 912.84 256.56 913.23 177.44 913.08C177.44 893.89 177.44 874.69 177.48 855.49C261.98 855.49 346.48 855.49 430.98 855.49C431.03 837.69 431.03 819.88 430.98 802.12C351.28 802.07 271.57 802.12 191.82 802.07C191.82 783.31 191.82 764.5 191.87 745.68C271.57 745.73 351.28 745.73 430.98 745.73C431.03 731.28 431.03 716.89 430.98 702.49C351.28 702.54 271.57 702.49 191.82 702.54C191.82 683.53 191.82 664.52 191.82 645.52C271.52 645.52 351.28 645.52 430.98 645.52C430.98 630.35 431.03 615.14 431.03 599.92C346.48 599.92 261.98 599.92 177.44 599.92C177.44 580.92 177.44 561.91 177.44 542.91C211.53 542.91 245.68 542.96 279.77 542.91C277.76 526.73 275.84 510.56 273.83 494.39Z" />
		<path id="Layer" fill-rule="evenodd" class="shp1" d="M839.22 506.34C1013.45 506.29 1187.67 506.43 1361.89 506.29C1372.78 506.05 1384.72 508.11 1392.44 516.61C1401.55 525.77 1401.31 539.6 1401.55 551.69C1401.41 727.35 1401.55 903.01 1401.5 1078.66C1228.29 1078.71 1055.02 1078.57 881.81 1078.71C869.48 1078.76 855.24 1077.66 846.9 1067.24C839.56 1058.89 839.18 1047.23 839.13 1036.72C839.32 859.91 839.18 683.15 839.22 506.34ZM908.18 1019.87C1049.41 1019.87 1190.69 1019.87 1331.92 1019.87C1332.02 868.31 1331.97 716.74 1331.97 565.13C1190.69 565.13 1049.46 565.13 908.18 565.13C908.14 716.69 908.14 868.31 908.18 1019.87Z" />
		<path id="Layer" class="shp1" d="M1170.69 595.7C1193.28 595.7 1215.87 595.7 1238.46 595.75C1238.41 612.35 1238.46 628.91 1238.46 645.52C1259.84 645.52 1281.18 645.52 1302.57 645.52C1302.57 663.9 1302.57 682.28 1302.62 700.66C1281.18 700.71 1259.84 700.71 1238.46 700.71C1238.46 755.18 1238.5 809.61 1238.46 864.08C1238.26 906.41 1231.93 948.74 1217.74 988.72C1193.04 988.63 1168.39 988.67 1143.69 988.72C1160.29 954.22 1169.83 916.44 1170.26 878.14C1171.27 819.02 1170.45 759.89 1170.69 700.71C1150.41 700.71 1130.17 700.71 1109.89 700.76C1102.98 769.29 1086.77 836.82 1062.84 901.42C1051.43 931.71 1038.05 961.46 1020.45 988.72C995.27 988.63 970.1 988.67 944.97 988.72C1001.46 903.25 1031.24 802.03 1041.88 700.76C1008.7 700.66 975.51 700.76 942.33 700.71C942.33 682.33 942.33 663.9 942.33 645.52C1018.48 645.52 1094.59 645.57 1170.69 645.52C1170.69 628.91 1170.74 612.31 1170.69 595.7Z" />
	</g>
</svg>